<svg xmlns="http://www.w3.org/2000/svg" viewBox="0 0 64 64" fill="none">
  <!-- Е · 2: «Ножницы-градиент» — золотые лезвия, розовая и персиковая ручки, цветок -->
  <defs>
    <linearGradient id="blade" x1="0" y1="1" x2="1" y2="0">
      <stop offset="0" stop-color="#D9B36A"/><stop offset="1" stop-color="#F3DCA5"/>
    </linearGradient>
    <linearGradient id="hd1" x1="0" y1="0" x2="0" y2="1">
      <stop offset="0" stop-color="#F49BB8"/><stop offset="1" stop-color="#D8638D"/>
    </linearGradient>
    <linearGradient id="hd2" x1="0" y1="0" x2="0" y2="1">
      <stop offset="0" stop-color="#F9C6A0"/><stop offset="1" stop-color="#EC8F5E"/>
    </linearGradient>
  </defs>
  <g stroke-linecap="round" stroke-linejoin="round">
    <path d="M30.5 30 L15.5 12" stroke="url(#blade)" stroke-width="4.4"/>
    <path d="M33.5 30 L48.5 12" stroke="url(#blade)" stroke-width="4.4"/>
    <path d="M30.5 30 C29 34.5 28.5 38 29 42" stroke="#B25579" stroke-width="2.6"/>
    <path d="M33.5 30 C35 34.5 35.5 38 35 42" stroke="#C97B54" stroke-width="2.6"/>
    <circle cx="27.5" cy="48" r="6" fill="url(#hd1)"/>
    <circle cx="36.5" cy="48" r="6" fill="url(#hd2)"/>
    <circle cx="27.5" cy="48" r="2.6" fill="#FFFCFD"/>
    <circle cx="36.5" cy="48" r="2.6" fill="#FFFCFD"/>
  </g>
  <circle cx="32" cy="30" r="2.4" fill="#DFA648"/>
  <!-- цветок -->
  <g transform="translate(47 39)" stroke="#C2557B" stroke-width="0.9" stroke-linecap="round">
    <circle r="1.8" fill="#DFA648" stroke="none"/>
    <ellipse rx="1.8" ry="4" transform="rotate(0) translate(0 -5)" fill="#F49BB8"/>
    <ellipse rx="1.8" ry="4" transform="rotate(72) translate(0 -5)" fill="#F9C6A0"/>
    <ellipse rx="1.8" ry="4" transform="rotate(144) translate(0 -5)" fill="#F49BB8"/>
    <ellipse rx="1.8" ry="4" transform="rotate(216) translate(0 -5)" fill="#F9C6A0"/>
    <ellipse rx="1.8" ry="4" transform="rotate(288) translate(0 -5)" fill="#F49BB8"/>
  </g>
  <circle cx="13" cy="40" r="1.7" fill="#F9C6A0"/>
  <circle cx="52" cy="8" r="1.5" fill="#F49BB8"/>
</svg>
