<svg xmlns="http://www.w3.org/2000/svg" viewBox="0 0 480 480">
  <defs>
    <linearGradient id="bg" x1="0" y1="0" x2="1" y2="1"><stop offset="0" stop-color="#FBEFF3"/><stop offset="1" stop-color="#F3DDE7"/></linearGradient>
    <linearGradient id="crab" x1="0" y1="0" x2="0" y2="1"><stop offset="0" stop-color="#FDF3F7"/><stop offset="1" stop-color="#E3BCCB"/></linearGradient>
    <linearGradient id="metal" x1="0" y1="0" x2="1" y2="0"><stop offset="0" stop-color="#C98BA2"/><stop offset="1" stop-color="#8A5066"/></linearGradient>
  </defs>
  <circle cx="240" cy="240" r="196" fill="url(#bg)"/>
  <ellipse cx="240" cy="400" rx="126" ry="17" fill="#D9A1B6" opacity="0.35"/>
  <g stroke="#7A3F56" stroke-width="7" stroke-linecap="round" stroke-linejoin="round">
    <!-- краб-заколка -->
    <g transform="translate(-6 6)">
      <path d="M150 214 c-4-42 30-72 90-72 s94 30 90 72 l-8 44 c-4 22-22 34-44 32 l-76-8 c-22-2-36-16-44-36 Z" fill="url(#crab)"/>
      <path d="M156 210 h168" stroke-width="6" opacity="0.7"/>
      <path d="M172 254 c44 10 92 12 138 6" stroke-width="6" opacity="0.7"/>
      <circle cx="240" cy="186" r="12" fill="#D9A1B6"/>
    </g>
    <!-- невидимки -->
    <g transform="rotate(24 350 330)">
      <path d="M298 330 h84" stroke="url(#metal)" stroke-width="9"/>
      <path d="M302 342 h76" stroke-width="5" opacity="0.7"/>
      <circle cx="302" cy="330" r="7" fill="#C98BA2"/>
    </g>
    <g transform="rotate(-18 200 372)">
      <path d="M158 372 h72" stroke="url(#metal)" stroke-width="9"/>
      <path d="M162 384 h64" stroke-width="5" opacity="0.7"/>
      <circle cx="158" cy="372" r="7" fill="#C98BA2"/>
    </g>
  </g>
</svg>
